<svg xmlns="http://www.w3.org/2000/svg" viewBox="0 0 570.9 174.2"><path d="m570 72-10 2 5-8c-26-12-52-23-80-30-41-10-84-11-126-11-48 1-95 2-143 5-12 1-25 2-37 0-18-3-37-13-54-8 6 4 11 9 15 15l-3 3c-25-1-50 15-74 8C38 40 25 10 1 0c14 18 30 37 34 60 3 17-1 35-8 51-6 16-16 30-27 44 32-11 47-48 76-65l1 2 42 21c8 5 16 9 22 16 10 12 12 28 10 43 16-4 30-14 40-26 4-4 8-9 13-10h10c9 2 18 5 26 9-10 8-18 18-25 29 22-5 45-10 64-23l5-2c25 11 55 8 82 4 36-5 72-12 107-20 34-8 69-19 92-45 4-4 7-11 5-16Z"  style="fill:#dee0ff;fill-opacity:1"/></svg>