<svg viewBox="0 0 455.1 115.8" xmlns="http://www.w3.org/2000/svg"><path d="M213 86c1 12-35 23-33 28 0 2 5 2 13 2l37-3c37-4 41-6 41-8 1-5-14-7-15-16-2-11 19-24 29-30 14-9 31-19 55-22 3 0 53-4 78 20 2 3 7 8 15 9 8 0 17-6 21-15s-1-18-2-20c-5-8-13-12-20-14-25-9-46-11-57-13-49-5-52-4-56-3-17 7-35 26-39 29-8 9-15 18-25 17-5 0-8-4-15-3-7 0-10 5-15 7-16 8-37-28-72-34-11-2-24 1-48 8-11 3-11 4-61 25C19 60 13 63 8 71c-9 13-11 35-3 40 11 7 29-17 85-45 20-10 28-12 37-13 17-1 30 4 57 15 28 11 29 16 29 18z" style="fill:#f3dff6;fill-opacity:1"/></svg>