<svg viewBox="0 0 26.46 37.04" xmlns="http://www.w3.org/2000/svg"><g style="fill:#362dfa;fill-opacity:1;stroke-width:3.42497"><path d="M246.18 0C127.1 0 59.53 102.68 84.72 211.82c17.94 77.72 132.59 280.63 161.46 280.63 28.88 0 143.24-202.97 161.46-280.63C433 103.74 365.96 0 246.18 0Z" style="fill:#362dfa;fill-opacity:1;stroke-width:3.42497" transform="matrix(.07934 0 0 .07522 -6.3 0)"/></g><g style="fill:#fafafa;fill-opacity:1;stroke-width:.730496"><g style="fill:#fafafa;fill-opacity:1;stroke-width:.724142"><path style="fill:#fafafa;fill-opacity:1;stroke-width:.963046" d="M61.96 17c-.35 0-.7 0-1.07.02-6.15.17-12.06 3.83-17.54 8.99-5.48 5.15-10.56 11.87-14.94 18.55-8.76 13.35-14.69 26.61-14.69 26.61l2.74 1.22s5.86-13.07 14.46-26.19c4.3-6.56 9.28-13.1 14.48-18 5.2-4.9 10.59-8.04 15.58-8.18 5.36-.15 8.94.84 11.33 2.3a10 10 0 0 1 4.38 5.37c.86 2.4.83 4.9.68 6.5-6.19-3.06-15.16-1.47-23.24 4.02.23 4.8 2.64 9.67 6.98 13.06a18.2 18.2 0 0 0 11.25 3.92c5.45-8.97 10.24-19.4 7.15-28.51a13.2 13.2 0 0 0-5.64-6.93C71.05 18.05 67.19 17 61.96 17Zm6 19.77a2.15 2.15 0 0 1 1.76 3.48 2.15 2.15 0 1 1-1.75-3.48z" transform="scale(.27474) rotate(8.64 79.5 55.38)"/><path d="M25.2 5.67c-.55.35-1.08.72-1.61 1.12l-1.26-.66a2.85 2.85 0 0 0-3.33.5l-8.86 8.86a2.84 2.84 0 0 0 .7 4.53l2 1.05c-2 4.7-3.1 9.3-3.4 12.21L.69 36.3a1.02 1.02 0 0 0-.1 1.9l3.81 1.8c.75.34 1.35.94 1.7 1.69l1.8 3.81a1.03 1.03 0 0 0 1.9-.1l3-8.76c4.11-.68 11.24-3.82 17.43-8.55l.7 2.14c.12.39.43.68.83.77.4.1.8-.02 1.1-.3l.73-.75c.57-.57.93-1.33.98-2.13l.26-3.77a87.22 87.22 0 0 0 3.08-3.26 16.45 16.45 0 0 1-7.9-4.42 16.22 16.22 0 0 1-4.81-10.7z" style="fill:#fafafa;fill-opacity:1;stroke-width:.724142" transform="matrix(.36522 .01053 -.01053 .36522 5.53 7.7)"/></g></g></svg>