<svg viewBox="0 0 26.46 37.04" xmlns="http://www.w3.org/2000/svg"><g style="fill:#0f91b2;fill-opacity:1"><g style="stroke-width:3.42497;fill:#0f91b2;fill-opacity:1"><path d="M246.18 0C127.1 0 59.53 102.68 84.72 211.82c17.94 77.72 132.59 280.63 161.46 280.63 28.88 0 143.24-202.97 161.46-280.63C433 103.74 365.96 0 246.18 0Z" style="stroke-width:3.42497;fill:#0f91b2;fill-opacity:1" transform="matrix(.07934 0 0 .07522 -6.3 0)"/></g></g><g style="fill:#fafafa;fill-opacity:1;stroke-width:3.14173"><path d="M229.96 169.34a7.5 7.5 0 0 1-10.6 0l-6.5-6.5a10.91 10.91 0 0 0-7.77-3.22c-2.93 0-5.69 1.15-7.76 3.22l-50.52 50.52a25.9 25.9 0 0 1-18.38 7.6 25.9 25.9 0 0 1-18.37-7.6 26.02 26.02 0 0 1 0-36.75l83.06-83.06a44.56 44.56 0 0 0 0-62.94L192 29.5l-36.1 38.73 7.82 7.82a7.5 7.5 0 1 1-10.61 10.6l-7.45-7.44-36.1 38.73 6.13 6.13a7.5 7.5 0 1 1-10.6 10.6l-5.76-5.75-20.97 22.51a24.05 24.05 0 0 1 1.79 35.17 23.84 23.84 0 0 1-17.21 7.26 23.9 23.9 0 0 1-16.77-6.82l-.5-.52-20.15 21.61a7.5 7.5 0 0 1-5.35 2.39h-.14a7.5 7.5 0 0 1-5.3-2.2L2.2 195.78a7.5 7.5 0 0 1 .19-10.8L186.7 13.23a7.5 7.5 0 0 1 11.15 1.04c.3.22.6.46.86.73l9.9 10.06c.97 1.12 1.62 2 2.37 3.12 15.94 23.17 13.33 55.4-7.25 76l-83.07 83.05a10.91 10.91 0 0 0-3.21 7.77 11 11 0 0 0 18.75 7.77l50.52-50.52a26.02 26.02 0 0 1 36.75 0l6.5 6.5a7.5 7.5 0 0 1 0 10.6z" style="fill:#fafafa;fill-opacity:1;stroke-width:3.14173" transform="matrix(.08212 -.01868 .01868 .08212 1.17 5.67)"/></g></svg>