<svg viewBox="0 0 20.6 20.6" xmlns="http://www.w3.org/2000/svg"><g style="stroke:none;stroke-opacity:1"><g style="fill:#eaeaff;fill-opacity:1;stroke:#97a1ff;stroke-width:3;stroke-miterlimit:4;stroke-dasharray:none;stroke-opacity:1"><circle style="fill:#eaeaff;fill-opacity:1;stroke:#97a1ff;stroke-width:3;stroke-linejoin:round;stroke-miterlimit:4;stroke-dasharray:none;stroke-opacity:1;paint-order:stroke fill markers" cx="176.6" cy="161.8" r="37.5" transform="translate(-36 -32) scale(.26458)"/></g><g style="fill:#0e2c75;fill-opacity:1;stroke:none;stroke-width:.891333;stroke-opacity:1"><g style="fill:#0e2c75;fill-opacity:1;stroke:none;stroke-width:.805414;stroke-opacity:1"><g style="fill:#0e2c75;fill-opacity:1;stroke:none;stroke-width:.891333;stroke-opacity:1"><path d="M47 4c-4-4-12-4-19 0 0 4 1 8 4 10 2 3 5 4 8 4 6-6 8-12 7-14zm-8 3a2 2 0 1 1-2-2 2 2 0 0 1 2 2z" style="fill:#0e2c75;fill-opacity:1;stroke:none;stroke-width:.891333;stroke-opacity:1" transform="translate(3 4) scale(.29684)"/><path d="m25 6-1 1-2-1-3 1-9 8a3 3 0 0 0 1 5l2 1-4 12-8 3-1 1 1 1 3 2 2 2 2 3a1 1 0 0 0 2 0l3-8c4-1 11-4 17-9l1 2 1 1h1l1-1 1-2v-4l3-3A16 16 0 0 1 25 6z" style="fill:#0e2c75;fill-opacity:1;stroke:none;stroke-width:.891333;stroke-opacity:1" transform="translate(3 4) scale(.29684)"/></g></g></g></g></svg>