<svg viewBox="0 0 136 136" xmlns="http://www.w3.org/2000/svg"><g transform="translate(-49.6 -43)"><circle style="fill:#c6ffff;fill-opacity:1;stroke:#59ffff;stroke-width:3.96875;stroke-linejoin:round;stroke-miterlimit:4;stroke-dasharray:none;stroke-opacity:1;paint-order:stroke fill markers" cx="117.6" cy="111.1" r="66"/><path d="M230 169.3c-3 3-7.7 3-10.6 0l-6.5-6.5a11 11 0 0 0-15.6 0l-50.5 50.6a26 26 0 0 1-36.7 0 26 26 0 0 1 0-36.8l83-83a44.6 44.6 0 0 0 0-63l-1-1.1-36.2 38.7 7.8 7.8a7.5 7.5 0 1 1-10.6 10.7l-7.4-7.5-36.1 38.7 6.1 6.2a7.5 7.5 0 1 1-10.6 10.6l-5.8-5.8-21 22.5 1.4 1.2A24 24 0 0 1 46.2 187l-.5-.5-20.2 21.6a7.5 7.5 0 0 1-5.3 2.4H20c-2 0-3.9-.8-5.3-2.2L2.2 195.8a7.5 7.5 0 0 1 .2-10.8L186.7 13.2a7.5 7.5 0 0 1 11.2 1l.8.8 9.9 10 2.4 3.2a60 60 0 0 1-7.3 76l-83 83a11 11 0 0 0 0 15.6 11 11 0 0 0 15.5 0l50.5-50.6a26 26 0 0 1 36.8 0l6.5 6.5c2.9 3 2.9 7.7 0 10.6z" style="fill:#333;fill-opacity:1;stroke-width:.571619" transform="translate(62 53) scale(.46287)"/></g></svg>