<svg width="514" height="514" viewBox="0 0 136 136" xmlns="http://www.w3.org/2000/svg"><g transform="translate(-50 -43)"><circle style="fill:#d7ffec;fill-opacity:1;stroke:#2cffab;stroke-width:3.96875;stroke-linejoin:round;stroke-miterlimit:4;stroke-dasharray:none;stroke-opacity:1;paint-order:stroke fill markers" cx="117.6" cy="111.1" r="66"/><g style="fill:#333;fill-opacity:1;stroke-width:.571619"><path d="M230 169c-3 3-8 3-11 0l-6-6a11 11 0 0 0-16 0l-50 50a26 26 0 0 1-37 0 26 26 0 0 1 0-36l83-83c17-18 17-46 0-63l-1-2-36 39 8 8a8 8 0 1 1-11 11l-7-8-36 39 6 6a7 7 0 1 1-11 11l-6-6-21 22 2 2a24 24 0 0 1-34 34l-20 21-6 3c-2 0-4-1-5-3L2 196a8 8 0 0 1 0-11L187 13a7 7 0 0 1 11 1l1 1 10 10 2 3c16 23 13 56-7 76l-83 83a11 11 0 0 0 0 16c4 4 11 4 15 0l51-51c10-10 26-10 36 0l7 7c3 3 3 7 0 10z" style="fill:#333;fill-opacity:1;stroke-width:.571619" transform="matrix(.46287 0 0 .46287 62 53)"/></g></g></svg>