<svg viewBox="0 0 136 136" xmlns="http://www.w3.org/2000/svg"><g transform="translate(-50 -43)"><circle style="fill:#abffd4;fill-opacity:1;stroke:#4be357;stroke-width:3.96875;stroke-linejoin:round;stroke-miterlimit:4;stroke-dasharray:none;stroke-opacity:1;paint-order:stroke fill markers" cx="117.6" cy="111.1" r="66"/><path d="M231 59H0v151h231ZM115 183a49 49 0 1 1 0-97 49 49 0 0 1 0 97zM88 20h55l18 29H70Zm56 115a29 29 0 1 1-58 0 29 29 0 0 1 58 0z" style="fill:#2a2a2a;fill-opacity:1;stroke-width:.716731" transform="translate(75 55) scale(.36915)"/><g style="stroke-width:2.40377"><path style="fill:#ff5e00;fill-opacity:1;stroke-width:2.40377" d="M242 121v241h241z" transform="matrix(.1406 0 0 -.08617 84 178)"/><path style="fill:#ff8824;fill-opacity:1;stroke:none;stroke-width:2.40377;stroke-opacity:1" d="M0 362h242V121z" transform="matrix(.1406 0 0 -.08617 84 178)"/></g></g></svg>