<svg width="515" height="515" viewBox="0 0 136.3 136.3" xmlns="http://www.w3.org/2000/svg"><g transform="translate(-3 -72)"><circle style="fill:#f5f5f5;fill-opacity:1;stroke:#80dce1;stroke-width:3.96875;stroke-linejoin:round;stroke-miterlimit:4;stroke-dasharray:none;stroke-opacity:1;paint-order:stroke fill markers" cx="71.6" cy="140" r="66.1"/><g style="fill:#e625cb;fill-opacity:1;stroke-width:1.28203"><path d="M384 0H128C81 0 43 38 43 85v214c0 47 38 85 85 85h64v92a36 36 0 0 0 63 24l95-116h34c47 0 85-38 85-85V85c0-47-38-85-85-85ZM256 85a21 21 0 1 1 0 43 21 21 0 0 1 0-43zm43 214h-86a21 21 0 1 1 0-43h22v-64a21 21 0 1 1 0-43h21c12 0 21 10 21 22v85h22a21 21 0 1 1 0 43z" style="fill:#e625cb;fill-opacity:1;stroke-width:1.28203" transform="matrix(.21093 0 0 .20192 19 94)"/></g></g></svg>