<svg viewBox="0 0 26.46 37.04" xmlns="http://www.w3.org/2000/svg"><g style="fill:#ff00c5;fill-opacity:1;stroke-width:3.42497"><path d="M246.18 0C127.1 0 59.53 102.68 84.72 211.82c17.94 77.72 132.59 280.63 161.46 280.63 28.88 0 143.24-202.97 161.46-280.63C433 103.74 365.96 0 246.18 0Z" style="fill:#ff00c5;fill-opacity:1;stroke-width:3.42497" transform="matrix(.07934 0 0 .07522 -6.3 0)"/></g><path d="M94.9 136.98a2.66 2.66 0 0 0-2.6 2.6c0 1.38 1.21 2.6 2.6 2.6 1.38 0 2.6-1.22 2.6-2.6 0-1.39-1.22-2.6-2.6-2.6zm-6.07 6.93v1.73s3.47 0 3.47 3.46v3.47c0 3.46-3.47 3.46-3.47 3.46v1.73h12.13v-1.73s-3.46 0-3.46-3.46v-6.93c0-.87-.87-1.73-1.74-1.73z" style="fill:#fafafa;fill-opacity:1;stroke-width:.264583" transform="translate(-81.67 -132.56)"/></svg>