<svg viewBox="0 0 132.3 132.3" version="1.1" id="svg5" xmlns="http://www.w3.org/2000/svg"><g id="layer1" transform="translate(-76.4 -106.8)"><g id="g1762" transform="matrix(.26458 0 0 .26458 69.1 99.5)"><g id="Layer_2"><g id="g1745"><circle style="opacity:.5;fill:#c0dbff;fill-opacity:1;stroke-width:.999998;stroke-linejoin:round;paint-order:stroke fill markers" id="path2616" cx="277.5" cy="277.5" r="250"/><g id="g1739" transform="translate(21.5 21.5)"><circle class="st0" cx="256" cy="256" r="101.7" id="circle1737" style="fill:#009cff;fill-opacity:1"/></g><g id="g1743" transform="translate(21.5 21.5)"><path class="st0" d="M468.5 240h-28A185.4 185.4 0 0 0 272 71.6V43.5a16 16 0 1 0-32 0v28A185.4 185.4 0 0 0 71.6 240H43.5a16 16 0 1 0 0 32h28c7.8 89.3 79.2 160.7 168.5 168.4v28.1a16 16 0 1 0 32 0v-28c89.3-7.8 160.7-79.2 168.4-168.5h28.1a16 16 0 1 0 0-32zM256 409.1A153.3 153.3 0 0 1 102.9 256c0-84.4 68.7-153.1 153.1-153.1 84.4 0 153.1 68.7 153.1 153.1 0 84.4-68.7 153.1-153.1 153.1z" id="path1741" style="fill:#2a2a2a;fill-opacity:1"/></g></g></g></g></g><style type="text/css" id="style1734">.st0{fill:#333}</style></svg>