<svg width="490" height="490" viewBox="0 0 129.6 129.6" xmlns="http://www.w3.org/2000/svg"><g style="fill:#444;fill-opacity:1;stroke-width:.999999"><g style="fill:#444;fill-opacity:1;stroke-width:.999999"><path style="fill:#444;fill-opacity:1;stroke-width:.999999" d="M148 217h30.6v54.6H148zM148 119.9h30.6v54.6H148z" transform="matrix(.26458 0 0 .26458 0 0)"/><path d="M312.6 481.2v.4h.5l13.6 8.4 14-8.4h2.5V480L490 391.9V0l-88.8 57.4a109 109 0 0 0-147.7 1l-74.8-48.2V8.6h-2.4L162.9 0 0 83v407l163.3-101.8Zm15.3-421.5a79 79 0 0 1 73.4 107.8l-2.3 5.1L328 304.1l-71-131.2-2.6-5.8a78.5 78.5 0 0 1-5.3-28.5A79 79 0 0 1 328 59.7zM30.6 434.8v-333L148 41.8v35.4h30.7V46.6L234 82.3a108.8 108.8 0 0 0-8 96.5l3.2 7.6 98.6 182 98.7-182.3 3-6.8a108.7 108.7 0 0 0-8.7-98.2l38.5-24.8v318.3l-116.2 69.8V411h-30.6v34.1l-133-83-1-.4V314H148v47.5l-.9.6z" style="fill:#444;fill-opacity:1;stroke-width:.999999" transform="matrix(.26458 0 0 .26458 0 0)"/><path d="M327.9 186a48.4 48.4 0 1 0 0-96.8 48.4 48.4 0 0 0 0 96.9zm0-66.2a17.8 17.8 0 1 1 0 35.7 17.8 #44417.8 0 0 1 0-35.7z" style="fill:#444;fill-opacity:1;stroke-width:.999999" transform="matrix(.26458 0 0 .26458 0 0)"/></g></g></svg>