<svg width="22" height="16" viewBox="0 0 5.8 4.2" version="1.1" id="svg5" xmlns="http://www.w3.org/2000/svg"><defs id="defs2"><style id="style841">.cls-1{fill:none;stroke:#000;stroke-linecap:round;stroke-linejoin:round;stroke-width:1.5px}</style></defs><g id="layer1" transform="translate(-99.8 -115.4)"><g style="fill:#444444;fill-opacity:1" id="g839" transform="matrix(.26458 0 0 .26458 99 113.8)" fill="#000"><path d="M3 7c0-.6.4-1 1-1h20a1 1 0 1 1 0 2H4a1 1 0 0 1-1-1Z" id="path824" style="fill:#444444;fill-opacity:1"/><path d="M3 14c0-.6.4-1 1-1h20a1 1 0 1 1 0 2H4a1 1 0 0 1-1-1Z" id="path826" style="fill:#444444;fill-opacity:1"/><path d="M4 20a1 1 0 1 0 0 2h20a1 1 0 1 0 0-2z" id="path828" style="fill:#444444;fill-opacity:1"/></g></g></svg>