<svg viewBox="0 0 26.46 37.04" xmlns="http://www.w3.org/2000/svg"><g style="fill:#4287ff;fill-opacity:1"><g style="fill:#4287ff;fill-opacity:1;stroke-width:3.42497"><path d="M246.18 0C127.1 0 59.53 102.68 84.72 211.82c17.94 77.72 132.59 280.63 161.46 280.63 28.88 0 143.24-202.97 161.46-280.63C433 103.74 365.96 0 246.18 0Z" style="fill:#4287ff;fill-opacity:1;stroke-width:3.42497" transform="matrix(.07934 0 0 .07522 -6.3 0)"/></g></g><g style="stroke-width:.246386"><path d="M1.18.8v15.06H4.3l.03-5.02 4.37-.03c2.51-.02 5.02-1.22 5.02-4.99 0-3.76-2.5-5.05-5.04-5.04zM4.3 3.97l.03 3.76 3.76-.03c1.09 0 2.45-.31 2.5-1.87.03-1.55-1.32-1.9-2.53-1.9Z" style="fill:#fafafa;fill-opacity:1;fill-rule:evenodd;stroke-width:.246385" transform="matrix(1.07386 0 0 1.07386 6.56 5.73)"/></g></svg>