<svg viewBox="0 0 58.61 78.58" xmlns="http://www.w3.org/2000/svg"><g style="fill:#555555;fill-opacity:1"><path d="M148.5 0C87.43 0 37.75 49.7 37.75 110.8c0 91.02 99.73 179.9 103.97 183.64a10.23 10.23 0 0 0 13.56 0c4.24-3.74 103.97-92.62 103.97-183.64C259.25 49.7 209.57 0 148.5 0Zm0 272.69c-22.05-21.37-90.24-93.03-90.24-161.9 0-49.78 40.48-90.28 90.24-90.28s90.24 40.5 90.24 90.29c0 68.86-68.2 140.52-90.24 161.89z" style="fill:#555555;fill-opacity:1" transform="translate(-9.99) scale(.26458)"/><path d="M148.5 59.18c-28.27 0-51.27 23.16-51.27 51.62 0 28.46 23 51.61 51.27 51.61 28.27 0 51.27-23.15 51.27-51.61s-23-51.62-51.27-51.62zm0 82.72c-16.96 0-30.77-13.95-30.77-31.1 0-17.15 13.8-31.1 30.77-31.1 16.96 0 30.77 13.95 30.77 31.1 0 17.15-13.8 31.1-30.77 31.1z" style="fill:#555555;fill-opacity:1" transform="translate(-9.99) scale(.26458)"/></g></svg>