<svg viewBox="0 0 18.38 16.155" xmlns="http://www.w3.org/2000/svg"><g style="fill:#0f91b2;fill-opacity:1"><path d="M246.18 0C127.1 0 59.53 102.68 84.72 211.82c17.94 77.72 132.59 280.63 161.46 280.63 28.88 0 143.24-202.97 161.46-280.63C433 103.74 365.96 0 246.18 0Z" style="fill:#0f91b2;fill-opacity:1;stroke-width:3.42497" transform="matrix(.021 0 0 .0199 -1.668 0)"/></g><path d="M229.96 169.34a7.5 7.5 0 0 1-10.6 0l-6.5-6.5a10.91 10.91 0 0 0-7.77-3.22c-2.93 0-5.69 1.15-7.76 3.22l-50.52 50.52a25.9 25.9 0 0 1-18.38 7.6 25.9 25.9 0 0 1-18.37-7.6 26.02 26.02 0 0 1 0-36.75l83.06-83.06a44.56 44.56 0 0 0 0-62.94L192 29.5l-36.1 38.73 7.82 7.82a7.5 7.5 0 1 1-10.61 10.6l-7.45-7.44-36.1 38.73 6.13 6.13a7.5 7.5 0 1 1-10.6 10.6l-5.76-5.75-20.97 22.51a24.05 24.05 0 0 1 1.79 35.17 23.84 23.84 0 0 1-17.21 7.26 23.9 23.9 0 0 1-16.77-6.82l-.5-.52-20.15 21.61a7.5 7.5 0 0 1-5.35 2.39h-.14a7.5 7.5 0 0 1-5.3-2.2L2.2 195.78a7.5 7.5 0 0 1 .19-10.8L186.7 13.23a7.5 7.5 0 0 1 11.15 1.04c.3.22.6.46.86.73l9.9 10.06c.97 1.12 1.62 2 2.37 3.12 15.94 23.17 13.33 55.4-7.25 76l-83.07 83.05a10.91 10.91 0 0 0-3.21 7.77 11 11 0 0 0 18.75 7.77l50.52-50.52a26.02 26.02 0 0 1 36.75 0l6.5 6.5a7.5 7.5 0 0 1 0 10.6z" style="fill:#fafafa;fill-opacity:1;stroke-width:3.14173" transform="matrix(.02173 -.00494 .00494 .02173 .308 1.5)"/><g style="fill:#aba62e;fill-opacity:1"><path d="M246.18 0C127.1 0 59.53 102.68 84.72 211.82c17.94 77.72 132.59 280.63 161.46 280.63 28.88 0 143.24-202.97 161.46-280.63C433 103.74 365.96 0 246.18 0Z" style="fill:#aba62e;fill-opacity:1;stroke-width:3.42497" transform="matrix(.021 0 0 .0199 2.125 2.118)"/></g><path style="fill:#fafafa;fill-opacity:1;stroke-width:3.28054" d="M211.5 16.94H7.5a7.5 7.5 0 0 0-7.5 7.5v63.3a7.5 7.5 0 0 0 7.5 7.5h8.17v99.32a7.5 7.5 0 0 0 7.5 7.5h172.64a7.5 7.5 0 0 0 7.5-7.5V95.24h8.2a7.5 7.5 0 0 0 7.5-7.5v-63.3a7.5 7.5 0 0 0-7.51-7.5zm-45.67 136.5h-42.31v-41.12h42.3zm-82.66-40.83v74.45H49.4V112.6c0-.16.13-.3.3-.3h33.2c.15 0 .28.14.28.3z" transform="matrix(.02134 0 0 .02134 4.956 3.452)"/><g><g style="fill:#4287ff;fill-opacity:1"><path d="M246.18 0C127.1 0 59.53 102.68 84.72 211.82c17.94 77.72 132.59 280.63 161.46 280.63 28.88 0 143.24-202.97 161.46-280.63C433 103.74 365.96 0 246.18 0Z" style="fill:#4287ff;fill-opacity:1;stroke-width:3.42497" transform="matrix(.021 0 0 .0199 5.918 4.236)"/></g><g style="stroke-width:.246386"><path d="M1.18.8v15.06H4.3l.03-5.02 4.37-.03c2.51-.02 5.02-1.22 5.02-4.99 0-3.76-2.5-5.05-5.04-5.04zM4.3 3.97l.03 3.76 3.76-.03c1.09 0 2.45-.31 2.5-1.87.03-1.55-1.32-1.9-2.53-1.9z" style="fill:#fafafa;fill-opacity:1;fill-rule:evenodd;stroke-width:.246385" transform="matrix(.28413 0 0 .28413 9.32 5.752)"/></g></g><g><path d="M246.18 0C127.1 0 59.53 102.68 84.72 211.82c17.94 77.72 132.59 280.63 161.46 280.63 28.88 0 143.24-202.97 161.46-280.63C433 103.74 365.96 0 246.18 0Z" style="fill:#564dfa;fill-opacity:1;stroke-width:3.42497" transform="matrix(.021 0 0 .0199 9.711 6.354)"/><g style="fill:#fafafa;fill-opacity:1;stroke-width:.730496"><g style="fill:#fafafa;fill-opacity:1;stroke-width:.724142"><path style="fill:#fafafa;fill-opacity:1;stroke-width:.963046" d="M61.96 17c-.35 0-.7 0-1.07.02-6.15.17-12.06 3.83-17.54 8.99-5.48 5.15-10.56 11.87-14.94 18.55-8.76 13.35-14.69 26.61-14.69 26.61l2.74 1.22s5.86-13.07 14.46-26.19c4.3-6.56 9.28-13.1 14.48-18 5.2-4.9 10.59-8.04 15.58-8.18 5.36-.15 8.94.84 11.33 2.3a10 10 0 0 1 4.38 5.37c.86 2.4.83 4.9.68 6.5-6.19-3.06-15.16-1.47-23.24 4.02.23 4.8 2.64 9.67 6.98 13.06a18.2 18.2 0 0 0 11.25 3.92c5.45-8.97 10.24-19.4 7.15-28.51a13.2 13.2 0 0 0-5.64-6.93C71.05 18.05 67.19 17 61.96 17Zm6 19.77a2.15 2.15 0 0 1 1.76 3.48 2.15 2.15 0 1 1-1.75-3.48z" transform="rotate(8.632 -30.602 82.51) scale(.07269)"/><path d="M25.2 5.67c-.55.35-1.08.72-1.61 1.12l-1.26-.66a2.85 2.85 0 0 0-3.33.5l-8.86 8.86a2.84 2.84 0 0 0 .7 4.53l2 1.05c-2 4.7-3.1 9.3-3.4 12.21L.69 36.3a1.02 1.02 0 0 0-.1 1.9L4.4 40c.75.34 1.35.94 1.7 1.69l1.8 3.81a1.03 1.03 0 0 0 1.9-.1l3-8.76c4.11-.68 11.24-3.82 17.43-8.55l.7 2.14c.12.39.43.68.83.77.4.1.8-.02 1.1-.3l.73-.75c.57-.57.93-1.33.98-2.13l.26-3.77a87.22 87.22 0 0 0 3.08-3.26 16.45 16.45 0 0 1-7.9-4.42 16.22 16.22 0 0 1-4.81-10.7z" style="fill:#fafafa;fill-opacity:1;stroke-width:.724142" transform="rotate(1.625 -284.894 449.546) scale(.09667)"/></g></g></g></svg>