<svg width="500" height="500" viewBox="0 0 132.29 132.29" xmlns="http://www.w3.org/2000/svg"><g transform="translate(-12.58 -49.9)"><circle style="fill:#fafafa;fill-opacity:1;stroke:#ccc;stroke-width:3.96875;stroke-linejoin:round;stroke-opacity:1;paint-order:stroke fill markers" cx="78.72" cy="116.05" r="64.16"/><path d="M49.12 96a9.77 9.77 0 0 0 0-19.52 9.77 9.77 0 0 0 0 19.52zm58.56 0a9.77 9.77 0 0 0 0-19.52 9.77 9.77 0 0 0 0 19.52zm19.41 34.54-6.95-28.33a5.02 5.02 0 0 0-4.54-3.7 14.56 14.56 0 0 1-15.86 0 5.02 5.02 0 0 0-4.55 3.7l-6.95 28.33c-.54 2.3 1.3 4.5 3.77 4.5h8.35v15.86a3.65 3.65 0 0 0 3.66 3.66h7.32a3.65 3.65 0 0 0 3.66-3.66v-15.86h8.36c2.47 0 4.3-2.2 3.73-4.5zM80.84 76.48h-4.88a2.45 2.45 0 0 0-2.44 2.44v73.2c0 1.34 1.1 2.44 2.44 2.44h4.88c1.34 0 2.44-1.1 2.44-2.44v-73.2c0-1.34-1.1-2.44-2.44-2.44zM57.07 98.5a14.5 14.5 0 0 1-15.9 0 7.3 7.3 0 0 0-6.69 7.26v20.74a3.65 3.65 0 0 0 3.66 3.66h1.22v20.74a3.65 3.65 0 0 0 3.66 3.66h12.2a3.65 3.65 0 0 0 3.66-3.66v-20.74h1.22a3.65 3.65 0 0 0 3.66-3.66v-20.74a7.3 7.3 0 0 0-6.7-7.26z" style="fill:#2a2a2a;fill-opacity:1;stroke:none;stroke-width:.264583;stroke-opacity:1"/></g></svg>