<svg viewBox="0 0 26.458 37.042" xmlns="http://www.w3.org/2000/svg"><g style="fill:#888;fill-opacity:1"><g style="fill:#888;fill-opacity:1;stroke-width:3.42497"><path d="M246.181 0C127.095 0 59.533 102.676 84.72 211.82c17.938 77.722 132.589 280.631 161.462 280.631 28.873 0 143.243-202.975 161.463-280.631C432.996 103.74 365.965 0 246.181 0Z" style="fill:#888;fill-opacity:1;stroke-width:3.42497" transform="matrix(.07934 0 0 .07522 -6.306 0)"/></g></g><path d="M6.784 8.843a2.127 2.127 0 0 0 2.125-2.125 2.127 2.127 0 0 0-2.125-2.125 2.127 2.127 0 0 0-2.126 2.125c0 1.172.953 2.125 2.126 2.125zm12.752 0a2.127 2.127 0 0 0 2.125-2.125 2.127 2.127 0 0 0-2.125-2.125 2.127 2.127 0 0 0-2.126 2.125c0 1.172.954 2.125 2.126 2.125zm4.227 7.522-1.514-6.17c-.11-.448-.515-.764-.99-.804a3.17 3.17 0 0 1-1.726.515 3.17 3.17 0 0 1-1.727-.515c-.475.04-.88.356-.99.804l-1.514 6.17c-.117.502.282.98.82.98h1.82v3.454c0 .441.355.797.797.797h1.594a.795.795 0 0 0 .797-.797v-3.454h1.82c.538 0 .936-.478.813-.98zM13.691 4.593h-1.063a.533.533 0 0 0-.531.53v15.941c0 .293.24.532.531.532h1.063c.292 0 .531-.24.531-.532V5.124a.533.533 0 0 0-.531-.531zM8.514 9.388a3.156 3.156 0 0 1-1.73.518 3.156 3.156 0 0 1-1.73-.518 1.588 1.588 0 0 0-1.459 1.58v4.517c0 .442.356.797.797.797h.266V20.8c0 .441.355.797.797.797h2.657a.795.795 0 0 0 .797-.797v-4.517h.266a.795.795 0 0 0 .797-.797V10.97c0-.834-.641-1.511-1.458-1.581z" style="fill:#fafafa;fill-opacity:1;stroke-width:.264584"/></svg>