<svg width="315" height="315" viewBox="0 0 83.3 83.3" xmlns="http://www.w3.org/2000/svg"><g transform="translate(-65 -67)"><circle style="fill:#fffff2;fill-opacity:1;stroke:#ffff72;stroke-width:3.96875;stroke-linejoin:round;stroke-opacity:1;paint-order:stroke fill markers" cx="107.1" cy="108.5" r="39.7"/><g style="fill:#ff3d0a;fill-opacity:1;stroke:none;stroke-width:1.03249;stroke-opacity:1"><path style="fill:#ff3d0a;fill-opacity:1;stroke:none;stroke-width:1.03249;stroke-opacity:1" d="M212 17H8c-5 0-8 3-8 7v64c0 4 3 7 8 7h8v100c0 4 3 7 7 7h173c4 0 7-3 7-7V95h9c4 0 7-3 7-7V24c0-4-3-7-7-7zm-46 136h-42v-41h42zm-83-40v74H49v-74l1-1h33v1z" transform="translate(79 80) scale(.25626)"/></g></g></svg>