<svg viewBox="0 0 26.46 37.04" xmlns="http://www.w3.org/2000/svg"><g style="fill:#aba62e;fill-opacity:1"><g style="fill:#aba62e;fill-opacity:1;stroke-width:3.42497"><path d="M246.18 0C127.1 0 59.53 102.68 84.72 211.82c17.94 77.72 132.59 280.63 161.46 280.63 28.88 0 143.24-202.97 161.46-280.63C433 103.74 365.96 0 246.18 0Z" style="fill:#aba62e;fill-opacity:1;stroke-width:3.42497" transform="matrix(.07934 0 0 .07522 -6.3 0)"/></g></g><g style="fill:#fafafa;fill-opacity:1;stroke-width:3.28054"><path style="fill:#fafafa;fill-opacity:1;stroke-width:3.28054" d="M211.5 16.94H7.5a7.5 7.5 0 0 0-7.5 7.5v63.3a7.5 7.5 0 0 0 7.5 7.5h8.17v99.32a7.5 7.5 0 0 0 7.5 7.5h172.64a7.5 7.5 0 0 0 7.5-7.5V95.24h8.2a7.5 7.5 0 0 0 7.5-7.5v-63.3a7.5 7.5 0 0 0-7.51-7.5zm-45.67 136.5h-42.31v-41.12h42.3zm-82.66-40.83v74.45H49.4V112.6c0-.16.13-.3.3-.3h33.2c.15 0 .28.14.28.3z" transform="translate(4.4 5.04) scale(.08065)"/></g></svg>