<svg viewBox="0 0 26.46 37.04" xmlns="http://www.w3.org/2000/svg"><g style="fill:#ff3104;fill-opacity:1;stroke-width:3.42497"><path d="M246.18 0C127.1 0 59.53 102.68 84.72 211.82c17.94 77.72 132.59 280.63 161.46 280.63 28.88 0 143.24-202.97 161.46-280.63C433 103.74 365.96 0 246.18 0Z" style="fill:#ff3104;fill-opacity:1;stroke-width:3.42497" transform="matrix(.07934 0 0 .07522 -6.3 0)"/></g><path d="M88.3 137.91v19.98h13.73v-19.98zm.8.8h9.24v14.87h-9.25Zm9.94.7h2.2v2.9h-2.2zm.8.79v1.32h.6v-1.32zm-8.94.3v1.02h-.7v.8h7.04v-.8h-2.82v-1.36l-.7.26-.27 1.1h-1.14v-1.01zm8.54 2.43h1.4v.79h-1.4zm-3.96.47a.71.71 0 0 0-.57.3c-.13.21-.2.42-.18.64H90.2v.79h7.05v-.8h-1.02c.01-.22-.07-.48-.18-.63a.71.71 0 0 0-.56-.3zm3.96.94h1.4v.79h-1.4zm-8.54 1.8v1.01h-.7v.8h7.04v-.8h-1.06v-1h-1.06v1h-1.4v-1.36h-.7v1.36H91.6v-.66zm.35 2.7a.7.7 0 0 0-.58.35c-.15.27-.18.51-.16.78h-.32v.8h7.05v-.8h-2.82v-1.01h-1.4v1h-1.03c.03-.25-.03-.56-.15-.77a.7.7 0 0 0-.59-.35zm8.19 3.24h1.4v.8h-1.4Zm-10.35 2.29h9.25v2.73h-9.25Zm.8.8v1.14h7.65v-1.15z" style="fill:#fafafa;fill-opacity:1;stroke-width:.264583" transform="translate(-81.67 -133.61)"/></svg>