<svg width="500" height="500" viewBox="0 0 132.3 132.3" xmlns="http://www.w3.org/2000/svg"><g transform="translate(-21 -72)"><circle style="fill:#fff1f6;fill-opacity:1;stroke:#ff7778;stroke-width:3.96875;stroke-linejoin:round;stroke-opacity:.70892;paint-order:stroke fill markers" cx="87.2" cy="138.4" r="64.2"/><path d="M53 89v99h68V89Zm4 4h46v73H57Zm49 3h11v15h-11zm4 4v7h3v-7zm-44 2v5h-3v4h34v-4H84v-7l-4 1-1 6h-6v-5zm42 12h7v4h-7zm-19 2-3 2-1 3H63v4h34v-4h-5v-3l-3-2zm19 5h7v4h-7zm-42 9v5h-3v4h34v-4h-5v-5h-5v5h-7v-7h-3v7h-7v-4zm2 13-3 2-1 4h-1v4h34v-4H84v-5h-7v5h-5l-1-4-3-2zm40 16h7v4h-7zm-51 11h46v14H57Zm4 4v6h38v-6z" style="fill:#6c2a2a;fill-opacity:1;stroke-width:.264583"/></g></svg>