<svg width="500" height="500" viewBox="0 0 132.3 132.3" xmlns="http://www.w3.org/2000/svg"><g transform="translate(-6 -75)"><circle style="fill:#fff5f0;fill-opacity:1;stroke:#ff7778;stroke-width:3.96876;stroke-linejoin:round;stroke-opacity:.70892;paint-order:stroke fill markers" cx="72.1" cy="140.9" r="64.2"/><g style="fill:#ff281e;fill-opacity:1;stroke-width:1.305"><path d="M476 354 306 59a72 72 0 0 0-126 0L10 354a73 73 0 0 0 63 109h340c56 0 91-61 63-109zm-233 44c-15 0-27-13-27-27 0-15 12-27 27-27s27 12 26 27c1 14-12 27-26 27zm25-175-4 62-1 20c0 11-9 20-20 20s-20-8-21-19l-5-98-2-26c0-14 8-26 21-29s26 3 32 15l2 14-2 41z" style="fill:#ff281e;fill-opacity:1;stroke-width:1.305" transform="matrix(.20275 0 0 .20275 23 84)"/></g></g></svg>