<svg xmlns="http://www.w3.org/2000/svg" width="177.339" height="200" viewBox="0 0 177.339 200"><path d="M2837.634,283.974a50.419,50.419,0,0,0-50.365,50.364c0,7.542,3.107,17.486,7.556,28.839s10.333,23.922,16.209,35.67c11.753,23.5,23.494,43.726,23.494,43.726a3.59,3.59,0,0,0,6.21,0s11.74-20.228,23.493-43.726c5.876-11.749,11.761-24.317,16.21-35.67s7.556-21.3,7.556-28.839a50.418,50.418,0,0,0-50.364-50.364Zm0,19.413a31.91,31.91,0,1,1-31.912,31.908,31.911,31.911,0,0,1,31.912-31.908Zm-22.6,121.681c-38.92,3.465-66.049,15.352-66.073,28.949,0,16.544,39.7,29.956,88.67,29.956s88.667-13.411,88.668-29.955c-.05-13.592-27.18-25.469-66.086-28.931-6.908,12.84-12.085,21.778-12.085,21.778h0c-4.476,7.707-16.522,7.707-21,0h0s-5.183-8.946-12.1-21.8Z" transform="translate(-2748.963 -283.974)"/></svg>